name Run_300 01_newCOP3_v24.mot
datacolumns 19
datarows 62
range 2.7125 2.776042
DataType=double
version=3
OpenSimVersion=4.3-2021-08-27-4bc7ad9
endheader
time	R_ground_force_vx	R_ground_force_vy	R_ground_force_vz	R_ground_force_px	R_ground_force_py	R_ground_force_pz	L_ground_force_vx	L_ground_force_vy	L_ground_force_vz	L_ground_force_px	L_ground_force_py	L_ground_force_pz	R_ground_torque_x	R_ground_torque_y	R_ground_torque_z	L_ground_torque_x	L_ground_torque_y	L_ground_torque_z
2.7125	0	0	0	0	0	0	0	0	0	0	0	0	0	0	0	0	0	0
2.713542	0	0	0	0	0	0	0	0	0	0	0	0	0	0	0	0	0	0
2.714583	0	0	0	0	0	0	0	0	0	0	0	0	0	0	0	0	0	0
2.715625	0	0	0	0	0	0	0	0	0	0	0	0	0	0	0	0	0	0
2.716667	0	0	0	0	0	0	0	0	0	0	0	0	0	0	0	0	0	0
2.717708	0	0	0	0	0	0	0	0	0	0	0	0	0	0	0	0	0	0
2.71875	0	0	0	0	0	0	0	0	0	0	0	0	0	0	0	0	0	0
2.719792	0	0	0	0	0	0	0	0	0	0	0	0	0	0	0	0	0	0
2.720833	0	0	0	0	0	0	0	0	0	0	0	0	0	0	0	0	0	0
2.721875	0	0	0	0	0	0	0	0	0	0	0	0	0	0	0	0	0	0
2.722917	0	0	0	0	0	0	0	0	0	0	0	0	0	0	0	0	0	0
2.723958	0	0	0	0	0	0	0	0	0	0	0	0	0	0	0	0	0	0
2.725	0	0	0	0	0	0	0	0	0	0	0	0	0	0	0	0	0	0
2.726042	0	0	0	0	0	0	0	0	0	0	0	0	0	0	0	0	0	0
2.727083	0	0	0	0	0	0	0	0	0	0	0	0	0	0	0	0	0	0
2.728125	0	0	0	0	0	0	0	0	0	0	0	0	0	0	0	0	0	0
2.729167	0	0	0	0	0	0	0	0	0	0	0	0	0	0	0	0	0	0
2.730208	0	0	0	0	0	0	0	0	0	0	0	0	0	0	0	0	0	0
2.73125	0	0	0	0	0	0	0	0	0	0	0	0	0	0	0	0	0	0
2.732292	0	0	0	0	0	0	0	0	0	0	0	0	0	0	0	0	0	0
2.733333	0	0	0	0	0	0	0	0	0	0	0	0	0	0	0	0	0	0
2.734375	0	0	0	0	0	0	0	0	0	0	0	0	0	0	0	0	0	0
2.735417	0	0	0	0	0	0	0	0	0	0	0	0	0	0	0	0	0	0
2.736458	0	0	0	0	0	0	0	0	0	0	0	0	0	0	0	0	0	0
2.7375	0	0	0	0	0	0	0	0	0	0	0	0	0	0	0	0	0	0
2.738542	0	0	0	0	0	0	0	0	0	0	0	0	0	0	0	0	0	0
2.739583	0	0	0	0	0	0	0	0	0	0	0	0	0	0	0	0	0	0
2.740625	0	0	0	0	0	0	0	0	0	0	0	0	0	0	0	0	0	0
2.741667	0	0	0	0	0	0	0	0	0	0	0	0	0	0	0	0	0	0
2.742708	0	0	0	0	0	0	0	0	0	0	0	0	0	0	0	0	0	0
2.74375	0	0	0	0	0	0	0	0	0	0	0	0	0	0	0	0	0	0
2.744792	0	0	0	0	0	0	0	0	0	0	0	0	0	0	0	0	0	0
2.745833	0	0	0	0	0	0	0	0	0	0	0	0	0	0	0	0	0	0
2.746875	0	0	0	0	0	0	0	0	0	0	0	0	0	0	0	0	0	0
2.747917	0	0	0	0	0	0	0	0	0	0	0	0	0	0	0	0	0	0
2.748958	0	0	0	0	0	0	0	0	0	0	0	0	0	0	0	0	0	0
2.75	-1.886785	10.537659	-0.637151	0	0	0	0	0	0	0	0	0	0	0	0	0	0	0
2.751042	-2.114007	11.801452	-0.864787	0	0	0	0	0	0	0	0	0	0	0	0	0	0	0
2.752083	-2.360943	13.289294	-1.103523	0	0	0	0	0	0	0	0	0	0	0	0	0	0	0
2.753125	-2.62617	15.031472	-1.353146	0.97544	0	-0.211146	0	0	0	0	0	0	0	-3.90232	0	0	0	0
2.754167	-2.907695	17.060621	-1.613471	0.9809099999999999	0	-0.222342	0	0	0	0	0	0	0	-3.831821	0	0	0	0
2.755208	-3.202919	19.411757	-1.884331	0.985806	0	-0.231958	0	0	0	0	0	0	0	-3.714808	0	0	0	0
2.75625	-3.508597	22.122297	-2.165553	0.990104	0	-0.240165	0	0	0	0	0	0	0	-3.54754	0	0	0	0
2.757292	-3.820822	25.232063	-2.456935	0.993819	0	-0.247145	0	0	0	0	0	0	0	-3.326637	0	0	0	0
2.758333	-4.135006	28.783274	-2.75821	0.996986	0	-0.25308	0	0	0	0	0	0	0	-3.049175	0	0	0	0
2.759375	-4.44589	32.820496	-3.069003	0.999657	0	-0.258138	0	0	0	0	0	0	0	-2.71279	0	0	0	0
2.760417	-4.747576	37.390587	-3.388782	1.001885	0	-0.262467	0	0	0	0	0	0	0	-2.315778	0	0	0	0
2.761458	-5.033581	42.542599	-3.71681	1.003725	0	-0.2662	0	0	0	0	0	0	0	-1.857191	0	0	0	0
2.7625	-5.296937	48.327629	-4.052082	1.005226	0	-0.269445	0	0	0	0	0	0	0	-1.336932	0	0	0	0
2.763542	-5.530321	54.798618	-4.393266	1.006432	0	-0.272294	0	0	0	0	0	0	0	-0.755836	0	0	0	0
2.764583	-5.726233	62.010117	-4.738644	1.007383	0	-0.274821	0	0	0	0	0	0	0	-0.115747	0	0	0	0
2.765625	-5.877205	70.017944	-5.086047	1.008112	0	-0.277088	0	0	0	0	0	0	-0	0.580423	-0	0	0	0
2.766667	-5.976065	78.87880699999999	-5.432799	1.008645	0	-0.279141	0	0	0	0	0	0	-0	1.328644	-0	0	0	0
2.767708	-6.016211	88.649788	-5.775661	1.009007	0	-0.281018	0	0	0	0	0	0	-0	2.123746	-0	0	0	0
2.76875	-5.991933	99.387787	-6.110782	1.009215	0	-0.28275	0	0	0	0	0	0	-0	2.959405	-0	0	0	0
2.769792	-5.898727	111.148849	-6.433666	1.009287	0	-0.284358	0	0	0	0	0	0	-0	3.828158	-0	0	0	0
2.770833	-5.733624	123.987366	-6.739137	1.009236	0	-0.285862	0	0	0	0	0	0	-0	4.72144	-0	0	0	0
2.771875	-5.495496	137.95517	-7.021331	1.009074	0	-0.287274	0	0	0	0	0	0	-0	5.629641	-0	0	0	0
2.772917	-5.185342	153.100616	-7.273697	1.008813	0	-0.288606	0	0	0	0	0	0	-0	6.542193	-0	0	0	0
2.773958	-4.806525	169.467438	-7.489011	1.008461	0	-0.289865	0	0	0	0	0	0	-0	7.44768	-0	0	0	0
2.775	-4.364963	187.093552	-7.659422	1.008028	0	-0.291058	0	0	0	0	0	0	-0	8.333970000000001	-0	0	0	0
2.776042	-3.869249	206.009903	-7.776507	1.007523	0	-0.292188	0	0	0	0	0	0	-0	9.188373	-0	0	0	0
